<?xml version="1.0" encoding="utf-8"?>
<!-- Generator: Adobe Illustrator 25.0.1, SVG Export Plug-In . SVG Version: 6.00 Build 0)  -->
<svg version="1.1" id="Layer_1" xmlns="http://www.w3.org/2000/svg" xmlns:xlink="http://www.w3.org/1999/xlink" x="0px" y="0px"
	 viewBox="0 0 1920 1080" style="enable-background:new 0 0 1920 1080;" xml:space="preserve">
<style type="text/css">
	.st0{fill:#FFFFFF;}
</style>
<g>
	<g>
		<path class="st0" d="M443.7,402.38h125.45l-8.24,45.8h-75.4l-8.24,45.8h63.99l-8.24,45.8h-63.99l-15.84,84.76h-50.69L443.7,402.38
			z"/>
		<path class="st0" d="M607.16,402.38h50.69l-41.18,222.15h-50.69L607.16,402.38z"/>
		<path class="st0" d="M705.36,402.38h67.79c41.18,0,72.86,15.72,72.86,58.78c0,61.52-46.25,86.81-95.04,86.81h-22.17l-13.94,76.56
			h-50.69L705.36,402.38z M755.42,504.91c27.24,0,40.55-14.35,40.55-35.54c0-16.4-10.77-23.92-29.78-23.92h-18.37l-10.77,59.47
			H755.42z M745.91,534.98l36.11-35.54l44.98,125.09h-53.22L745.91,534.98z"/>
		<path class="st0" d="M899.24,402.38h125.45l-8.24,45.8h-75.4l-6.97,38.96h63.99l-8.24,45.8h-63.99l-8.87,45.8h77.93l-8.24,45.8
			H858.05L899.24,402.38z"/>
		<path class="st0" d="M1069.03,402.38h125.45l-8.24,45.8h-75.4l-8.24,45.8h63.99l-8.24,45.8h-63.99l-15.84,84.76h-50.69
			L1069.03,402.38z"/>
		<path class="st0" d="M1232.49,402.38h50.69l-32.95,176.35h74.76l-8.24,45.8h-125.45L1232.49,402.38z"/>
		<path class="st0" d="M1403.55,546.6l-32.63-144.22h52.59l6.65,49.21c2.53,17.09,4.43,31.44,6.97,49.21h1.27
			c8.24-17.77,15.21-32.81,24.08-49.9l24.71-48.53h54.49l-87.43,144.22l-14.57,77.92h-50.37L1403.55,546.6z"/>
	</g>
</g>
<g>
	<g>
		<path class="st0" d="M1522.93,405.47h-3.9l0.62-3.44h11.59l-0.62,3.44h-3.9l-2.42,13.23h-3.8L1522.93,405.47z"/>
		<path class="st0" d="M1533.67,402.04h3.94l1,7.18l0.36,2.82h0.1l1.35-2.82l3.61-7.18h3.94l-3.09,16.66h-3.56l1.09-5.54
			c0.33-1.74,1-4.15,1.52-5.84h-0.07l-1.92,3.9l-3.28,6.05h-1.43l-1-6.05l-0.48-3.9h-0.07c-0.12,1.69-0.29,4.15-0.59,5.84
			l-1.05,5.54h-3.47L1533.67,402.04z"/>
	</g>
</g>
<rect x="402.52" y="662.28" class="st0" width="1104.31" height="48.61"/>
</svg>
